<svg width="92" height="35" viewBox="0 0 92 35" fill="none" xmlns="http://www.w3.org/2000/svg">
<path d="M66.853 8.75785L65.2968 7.08024L62.3941 3.74156L62.3886 3.72501L60.7606 1.83769C60.6999 1.73836 60.6502 1.65558 60.6227 1.58384C60.584 1.5121 60.5509 1.4514 60.5178 1.40725C60.4847 1.35759 60.4461 1.33551 60.4019 1.32447H60.3964C60.275 1.3024 60.2198 1.44588 60.2253 1.74939V1.75491C60.2198 1.81562 60.2253 1.90943 60.2364 2.04188C60.2474 2.17984 60.2419 2.30676 60.2253 2.41713C60.2033 2.5275 60.2033 2.69857 60.2198 2.93586L60.2253 3.57601L60.2308 3.64223L60.2529 5.83858C60.2364 5.94895 60.2364 6.07587 60.2529 6.22487V7.76452H60.2419L60.2474 15.9098L60.2364 15.9374L60.2584 22.3554L60.264 22.3995L60.2584 22.7416L60.264 22.7527L60.286 28.227L60.2695 29.121C60.2584 29.2645 60.3026 29.3638 60.4019 29.4135C60.4626 29.4466 60.5454 29.4631 60.6447 29.4687H61.1083C61.6049 29.5073 61.8588 29.4135 61.8643 29.1762L61.9085 27.9014L61.9029 23.0341L61.9305 22.3388L61.925 21.0254L61.9581 20.0597L61.9692 16.6382H61.9581L61.9968 10.9045L61.9636 8.94548V8.93444L61.9802 7.82523C62.0188 7.57138 61.9471 7.28994 61.7595 6.9809C61.6215 6.72154 61.5829 6.51183 61.6491 6.36283C61.765 6.24143 61.9305 6.30213 62.1347 6.53943L62.5817 7.0085L62.6093 7.03057L65.501 9.85051L67.907 12.3393L68.9169 13.4651L71.2457 15.9484L73.3758 18.1227L73.3703 18.1337L74.016 18.7794L74.9927 19.8665C75.1473 20.1259 75.2852 20.2418 75.4011 20.2197C75.528 20.2087 75.6329 20.1259 75.7212 19.9714L75.7157 19.9603C75.7764 19.8444 75.8426 19.7562 75.9199 19.701L76.4496 19.1381L79.689 15.8546L81.1734 14.2763L81.19 14.2708L84.8542 10.4079L85.6599 9.52491H85.671L86.9733 8.09563C87.7073 7.41686 88.1819 7.12438 88.3861 7.20716C88.524 7.29545 88.5847 7.53275 88.5792 7.92456L88.5571 8.51504L88.6123 12.5821L88.6234 14.6626L88.6344 14.6847L88.6841 18.5586L88.6675 18.5642L88.7006 28.1497C88.7061 28.4588 88.6841 28.7733 88.6399 29.0824V29.0989C88.6068 29.3031 88.7448 29.4411 89.0538 29.4962L89.8154 29.5073C89.8209 29.5073 89.8264 29.5073 89.8264 29.5128C90.2292 29.5514 90.4279 29.4355 90.4279 29.1486L90.45 28.6464L90.5824 11.3957L90.5603 7.97974L90.5879 7.2182L90.5438 3.10142V2.16328C90.5603 1.94254 90.5328 1.78802 90.461 1.70525C90.3396 1.60591 90.2127 1.63903 90.0858 1.8101L89.8871 2.08602L88.8993 3.26146L87.0782 5.19292L86.3387 6.02069L85.4889 7.0416L83.9768 8.69163L83.6291 9.02274L80.009 12.7863L79.1426 13.7852H79.1371C78.9164 14.0721 78.657 14.3536 78.37 14.6295L78.0886 14.8999L77.1063 15.976L75.5943 17.3446C75.3459 17.5101 75.1252 17.4605 74.9265 17.1845L74.91 17.1735C74.4906 16.6824 73.8835 16.0588 73.0999 15.2972L71.5106 13.5975L66.853 8.75785Z" fill="white"/>
<path d="M5.97887 18.111C5.84091 18.4366 5.68639 18.7677 5.51532 19.0878L4.38955 21.251C4.26814 21.5214 4.11363 21.8249 3.93152 22.1616L2.65675 24.5455L2.04972 25.743C1.9228 25.9362 1.81243 26.1404 1.72965 26.3446C1.69654 26.4494 1.63584 26.5708 1.54202 26.7198C1.43717 26.8633 1.36543 27.0013 1.31576 27.1227C1.13917 27.4593 0.940508 27.8014 0.703214 28.1546L0.0299624 29.17C-0.0528146 29.3576 0.0354805 29.4515 0.300367 29.457L1.29921 29.3742L1.30473 29.4183L1.95039 29.3521C2.17665 29.3245 2.36979 29.2583 2.51879 29.1369C2.66779 29.0155 2.80023 28.8003 2.90508 28.4912C3.03753 28.1712 3.18653 27.8456 3.36312 27.52L7.21501 19.9542L8.64981 17.0791L9.94665 14.5792L10.4875 13.6466L10.7744 13.0616C11.0503 12.5539 11.2932 12.0738 11.5029 11.6268L11.983 10.628C12.2313 10.032 12.5183 9.41942 12.8549 8.80135L13.1198 8.20536C13.2743 7.9184 13.3902 7.68662 13.4619 7.52107C13.484 7.42174 13.5171 7.32792 13.5612 7.25066L13.9862 6.43393C14.1296 6.15249 14.2455 5.87105 14.3393 5.58961C14.4718 5.34679 14.538 5.07639 14.5435 4.78943C14.5215 4.50799 14.5877 4.34243 14.7422 4.28173C14.8305 4.27621 14.9022 4.30932 14.9464 4.38658C14.9905 4.46936 15.0236 4.54661 15.0512 4.62387C15.0733 4.69561 15.123 4.82254 15.2002 5.01017C15.2609 5.1702 15.3768 5.41301 15.5424 5.73308L16.0942 6.71537L18.6272 11.8641L19.6702 14.1432L19.8633 14.7061L20.0675 15.1421L20.6194 16.4168L21.1381 17.4488L21.6624 18.6684L23.7152 22.8845C24.1015 23.6571 24.4768 24.4297 24.83 25.2078L25.4922 26.5322L26.2372 27.8842C26.3089 28.0111 26.3806 28.1491 26.4524 28.3036C26.4965 28.4305 26.5628 28.5575 26.6345 28.6789L26.8387 29.0045C26.9546 29.1755 27.0705 29.3025 27.1863 29.3797C27.3298 29.468 27.4954 29.479 27.6775 29.4128C27.8596 29.3852 28.0417 29.3797 28.2183 29.4073C28.4777 29.4846 28.6653 29.4846 28.7812 29.4183C28.9136 29.3245 28.864 29.1369 28.6377 28.8665L27.7713 27.233L27.0042 25.4285L26.3972 24.1537L25.5915 22.603L23.3952 18.111L22.4846 16.1409L20.211 11.384L19.328 9.41942C19.019 8.92828 18.7983 8.44265 18.6603 7.95703L18.6051 7.85769C18.1581 6.78159 17.6284 5.64479 17.0158 4.44176C16.8171 3.92303 16.6185 3.53122 16.4198 3.27737C16.2487 2.76967 16.0004 2.24541 15.6638 1.7046C15.3823 1.16931 15.1726 0.865798 15.0292 0.788539C14.8691 0.760947 14.6925 0.970647 14.4994 1.41764L13.6219 3.24426L13.0149 4.40865L12.452 5.37438L10.9676 8.32676L10.2446 9.88849L9.33962 11.6599L9.04714 12.0628L5.97887 18.111Z" fill="white"/>
<path d="M52.7037 5.1089L52.7865 4.99853C50.9764 3.18296 48.907 1.99648 46.5727 1.44464C45.5573 1.20734 44.4922 1.08594 43.3775 1.08594C42.2628 1.08594 41.2032 1.20734 40.1878 1.44464C37.8645 1.99648 35.7951 3.18296 33.9906 4.99853C31.3914 7.6198 30.089 10.7764 30.0835 14.4682C30.089 18.1601 31.3914 21.3056 33.9906 23.9158C33.9961 23.9214 34.0071 23.9269 34.0126 23.9379L34.134 23.7999C32.5227 21.5595 31.717 18.9823 31.717 16.0686C31.7114 12.3767 33.0028 9.22568 35.5909 6.61544C38.1901 4.01073 41.3246 2.71389 44.9999 2.71941C47.8916 2.70837 50.4577 3.51407 52.6816 5.13098L52.7037 5.1089Z" fill="black"/>
<path d="M54.4034 6.61523L54.2489 6.73664C55.8713 8.98266 56.6825 11.5598 56.688 14.468C56.688 18.1599 55.3857 21.3054 52.7865 23.9156C50.1873 26.5259 47.0528 27.8282 43.3775 27.8227C40.4803 27.8227 37.9197 27.0115 35.6903 25.3946L35.5688 25.5049L35.5909 25.5325C38.1901 28.1428 41.3246 29.4506 44.9999 29.4562C48.6697 29.4506 51.8097 28.1428 54.4034 25.5325C57.0081 22.9168 58.3049 19.7602 58.3105 16.0684C58.3049 12.3765 57.0081 9.22547 54.4034 6.61523Z" fill="white"/>
<path d="M35.5688 25.5049C35.58 25.5161 35.5856 25.5217 35.5912 25.5329L35.5688 25.5049Z" fill="#616D81"/>
<path d="M32.8815 34.1221L32.2017 32.5957H29.8949L29.1974 34.1221H28.1279L30.092 29.8486H31.1614L33.0675 34.1221H32.8815ZM31.0626 30.0561L29.9761 32.4186H32.1205L31.0632 30.0561H31.0626Z" fill="white"/>
<path d="M37.1291 34.2137C36.4956 34.2137 36.2809 33.7678 36.0481 33.2248C35.9785 33.0659 35.9029 32.8954 35.8096 32.7304L35.6297 32.3275H33.4974V34.1221H33.3291V29.8486H33.4974V29.8547H35.4151C36.8096 29.8547 36.9724 30.2697 36.9724 31.5031C36.9316 32.0339 36.5541 32.327 36.0602 32.327H35.8163L36.2346 33.2364C36.3565 33.5052 36.5309 33.8528 36.7577 33.9693C36.7285 33.908 36.7114 33.8412 36.7114 33.7678C36.7114 33.5173 36.9029 33.322 37.1357 33.322C37.3686 33.322 37.5601 33.5173 37.5601 33.7618C37.5601 34.0062 37.3565 34.2137 37.1302 34.2137H37.1291ZM36.8035 31.5091C36.8035 31.0693 36.3852 30.917 35.9261 30.917H33.4974V32.1504H36.0602C36.4377 32.1504 36.8041 31.9247 36.8041 31.5091H36.8035Z" fill="white"/>
<path d="M37.356 30.917V29.8486H41.412V30.917H39.4657V34.1221H39.2974V30.917H37.3565H37.356Z" fill="white"/>
<path d="M47.6112 31.986C47.6112 33.2193 46.6643 34.2143 45.4381 34.2143H45.2173C43.9679 34.2143 43.0381 33.2193 43.0381 31.986C43.0381 30.7526 43.9679 29.7637 45.2173 29.7637H45.4381C46.6643 29.7637 47.6112 30.7587 47.6112 31.986ZM45.171 33.1459H45.485C46.566 33.1459 47.4606 32.6272 47.4606 31.986C47.4606 31.3447 46.5655 30.832 45.485 30.832H45.171C44.0844 30.832 43.1893 31.3508 43.1893 31.986C43.1893 32.6211 44.0844 33.1459 45.171 33.1459Z" fill="white"/>
<path d="M48.1228 34.1161H47.96V29.8486H51.249V30.917H48.1228V31.8938H50.7782V32.0709H48.1228V34.1161Z" fill="white"/>
<path d="M52.8184 34.1221L55.311 29.8486H56.2696V33.53L58.4196 29.8486H59.3782V34.1221H59.2098V30.4225L57.0599 34.1221H56.1013V30.4225L53.9513 34.1221H52.8184Z" fill="white"/>
<path d="M64.3932 34.1221L63.7133 32.5957H61.4066L60.7091 34.1221H59.6401L61.6042 29.8486H62.6731L64.5792 34.1221H64.3932ZM62.5743 30.0561L61.4877 32.4186H63.6316L62.5743 30.0561Z" fill="white"/>
<path d="M68.6408 34.2137C68.0073 34.2137 67.7926 33.7678 67.5598 33.2248C67.4902 33.0659 67.4146 32.8954 67.3214 32.7304L67.1415 32.3275H65.0091V34.1221H64.8408V29.8486H65.0091V29.8547H66.9268C68.3213 29.8547 68.4841 30.2697 68.4841 31.5031C68.4433 32.0339 68.0658 32.327 67.5719 32.327H67.328L67.7463 33.2364C67.8682 33.5052 68.0426 33.8528 68.2694 33.9693C68.2402 33.908 68.2231 33.8412 68.2231 33.7678C68.2231 33.5173 68.4146 33.322 68.6475 33.322C68.8803 33.322 69.0718 33.5173 69.0718 33.7618C69.0718 34.0062 68.8682 34.2137 68.6419 34.2137H68.6408ZM68.3152 31.5091C68.3152 31.0693 67.8969 30.917 67.4378 30.917H65.0091V32.1504H67.5719C67.9494 32.1504 68.3158 31.9247 68.3158 31.5091H68.3152Z" fill="white"/>
<path d="M72.8181 33.9698C72.7889 33.9086 72.7718 33.8418 72.7718 33.7684C72.7718 33.5179 72.9632 33.3225 73.1961 33.3225C73.429 33.3225 73.6205 33.5179 73.6205 33.7557C73.6205 34.0062 73.3998 34.2137 73.1382 34.2137C72.5979 34.2137 72.4119 33.9025 72.162 33.3529L71.6504 32.242L70.3486 34.1221H69.3315V29.8486H69.4999V33.6337L72.1266 29.8486H73.312L71.7663 32.0831L72.3126 33.2795C72.4406 33.5603 72.6437 33.8959 72.8181 33.9693V33.9698Z" fill="white"/>
<path d="M73.9106 34.1221V29.8486H77.368V30.917H74.0674V31.8998H76.8917V32.077H74.0674V33.0538H77.368V34.1221H73.9106Z" fill="white"/>
<path d="M77.6182 30.917V29.8486H81.6742V30.917H79.7279V34.1221H79.5596V30.917H77.6187H77.6182Z" fill="white"/>
<path d="M82.1971 29.4282C81.9416 29.4282 81.7324 29.2085 81.7324 28.9398C81.7324 28.671 81.9416 28.4453 82.1971 28.4453C82.4526 28.4453 82.6617 28.6649 82.6617 28.9398C82.6617 29.2146 82.4526 29.4282 82.1971 29.4282ZM82.2782 29.8492V34.1227H82.1099V29.8492H82.2782Z" fill="white"/>
<path d="M82.894 29.8486H83.9111L86.9794 33.6034V29.8486H87.1477V34.1221H86.1306L83.0624 30.3674V34.1221H82.894V29.8486Z" fill="white"/>
<path d="M89.553 33.1459H89.867C90.5585 33.1459 91.7267 32.8529 91.831 32.1267H89.8847V31.9495H91.9999V34.1227H91.8316V32.859C91.506 33.6525 90.7273 34.2143 89.8499 34.2143H89.5768C88.4146 34.2143 87.4268 33.2679 87.4268 31.9799C87.4268 30.6919 88.4085 29.7637 89.5768 29.7637H89.8499C90.8201 29.7637 91.7151 30.4717 91.942 31.4606L91.6749 31.5158C91.3609 31.1129 90.6694 30.832 89.8676 30.832H89.5536C88.4725 30.832 87.578 31.3508 87.578 31.992C87.578 32.6333 88.4731 33.1459 89.5536 33.1459H89.553Z" fill="white"/>
</svg>
